<svg width="24" height="24" viewBox="0 0 24 24" fill="none" xmlns="http://www.w3.org/2000/svg">
<path d="M2 6C2 3.79086 3.79086 2 6 2H18C20.2091 2 22 3.79086 22 6V18C22 20.2091 20.2091 22 18 22H6C3.79086 22 2 20.2091 2 18V6Z" fill="url(#paint0_linear_302_187)"/>
<g filter="url(#filter0_d_302_187)">
<path fill-rule="evenodd" clip-rule="evenodd" d="M17.7413 8.25831C17.3963 7.9139 16.8371 7.9139 16.4921 8.25831L10.858 13.8838L7.50785 10.5388C7.16291 10.1944 6.60365 10.1944 6.25871 10.5388C5.91376 10.8832 5.91376 11.4416 6.25871 11.786L10.0061 15.5277C10.0575 15.5789 10.1135 15.6226 10.1729 15.6586C10.1954 15.6874 10.2199 15.7152 10.2464 15.7417C10.5914 16.0861 11.1506 16.0861 11.4956 15.7417L17.7413 9.50554C18.0862 9.16113 18.0862 8.60272 17.7413 8.25831Z" fill="white"/>
</g>
<defs>
<filter id="filter0_d_302_187" x="5.8" y="7.8" width="13.2" height="9.2" filterUnits="userSpaceOnUse" color-interpolation-filters="sRGB">
<feFlood flood-opacity="0" result="BackgroundImageFix"/>
<feColorMatrix in="SourceAlpha" type="matrix" values="0 0 0 0 0 0 0 0 0 0 0 0 0 0 0 0 0 0 127 0" result="hardAlpha"/>
<feOffset dx="0.4" dy="0.4"/>
<feGaussianBlur stdDeviation="0.3"/>
<feComposite in2="hardAlpha" operator="out"/>
<feColorMatrix type="matrix" values="0 0 0 0 0 0 0 0 0 0 0 0 0 0 0 0 0 0 0.2 0"/>
<feBlend mode="normal" in2="BackgroundImageFix" result="effect1_dropShadow_302_187"/>
<feBlend mode="normal" in="SourceGraphic" in2="effect1_dropShadow_302_187" result="shape"/>
</filter>
<linearGradient id="paint0_linear_302_187" x1="4.5" y1="2" x2="20.5" y2="22" gradientUnits="userSpaceOnUse">
<stop offset="0.348679" stop-color="#E5B7E9"/>
<stop offset="1" stop-color="#8CDEEB"/>
</linearGradient>
</defs>
</svg>
